<svg xmlns="http://www.w3.org/2000/svg" width="1600" height="1600"><path d="M1181 88.902c-13.369 2.951-26.28 8.685-38 16.877-3.748 2.62-30.099 28.058-62.237 60.082l-55.736 55.539-2.764-2.539c-14.244-13.088-35.786-15.983-54.263-7.292-7.302 3.434-9.529 5.556-84.202 80.229-74.675 74.675-76.795 76.9-80.229 84.202-8.84 18.796-5.783 40.236 7.811 54.776l3.063 3.277L473.35 775.276c-187.602 187.673-342.542 343.39-344.313 346.037-4.326 6.467-8.425 15.787-10.416 23.687-1.074 4.261-4.555 44.045-10.106 115.5l-8.468 109-8.576 59.5c-9.602 66.611-9.798 69.701-4.919 77.593 4.203 6.798 10.81 10.723 18.804 11.168 4.179.234 25.332-2.566 66.144-8.753 66.762-10.121 47.253-8.271 222-21.045 58.708-4.292 64.95-5.177 77.337-10.974 3.525-1.649 8.716-4.643 11.536-6.654 2.82-2.01 69.927-68.268 149.127-147.239 416.747-415.545 485.225-483.8 510.161-508.5l27.161-26.905 3.839 3.022c16.383 12.894 40.827 13.878 57.989 2.333 3.481-2.341 35.883-34.03 80.002-78.241 80.972-81.138 78.334-78.127 81.966-93.555 2.888-12.272.273-26.173-7.102-37.75-1.752-2.75-3.961-5.64-4.909-6.421-1.571-1.295 3.402-6.565 55.666-59 35.732-35.85 58.809-59.771 61.151-63.387 5.337-8.243 11.276-21.318 13.813-30.408 1.85-6.629 2.179-10.456 2.218-25.784.039-15.787-.239-19.045-2.269-26.5-3.192-11.728-9.711-24.996-16.951-34.5-8.327-10.932-223.558-225.689-232.383-231.873-8.67-6.073-23.631-13.115-33.498-15.765-11.424-3.069-35.583-3.559-47.354-.96M973.761 274.75l-16.718 16.75 2.979 5.891c2.345 4.638 2.978 7.201 2.978 12.054 0 10.204-2.285 13.465-25.732 36.732-19.157 19.009-21.189 20.733-26.2 22.215-2.987.885-6.868 1.608-8.624 1.608-3.942 0-10.661-2.307-14.33-4.919l-2.755-1.961-17.175 17.196-17.175 17.195 175.94 175.938 175.939 175.937 17.227-17.067 17.228-17.068-2.189-2.783c-3.223-4.097-5.458-12.695-4.616-17.755 1.299-7.798 4.534-12.059 24.203-31.874 19.983-20.132 25.053-24.025 32.972-25.316 5.014-.817 13.664 1.413 17.653 4.55l2.681 2.109 11.726-11.013c6.45-6.057 14.42-13.755 17.711-17.106l5.983-6.093-175.982-175.985C1070.694 337.193 991.272 258 990.99 258c-.282 0-8.035 7.538-17.229 16.75m42.739 99.43c-3.269.891-8.085 5.129-26.369 23.205-24.437 24.159-27.111 27.82-27.111 37.115 0 9.09 5.804 18.245 14.467 22.821 5.617 2.967 16.44 2.959 22.013-.015 2.2-1.175 13.726-11.961 25.614-23.971 23.434-23.674 24.339-24.993 24.228-35.335-.141-13.237-10.101-23.752-23.27-24.567-3.064-.189-7.372.147-9.572.747m87.5 89.095c-4.329 1.325-46.056 42.137-49.306 48.225-2.982 5.588-2.983 16.408-.002 22 2.516 4.72 7.427 9.552 12.308 12.112 5.102 2.676 16.209 2.517 21.5-.306 2.2-1.175 13.714-11.961 25.587-23.971 23.997-24.272 24.793-25.516 23.618-36.908-1.661-16.094-17.582-26.085-33.705-21.152M521.867 797.521c-180.198 180.113-327.573 327.483-327.5 327.488.073.004 26.233 5.177 58.133 11.495l58 11.487 173-172.898c95.15-95.094 174.575-173.718 176.5-174.719 5.119-2.664 16.215-2.493 21.563.331 12.558 6.63 17.871 21.526 11.926 33.432-.924 1.85-79.488 81.215-174.587 176.367l-172.908 173.004 5.645 28.496c3.106 15.673 6.144 28.994 6.754 29.603.609.61 13.929 3.648 29.601 6.753l28.494 5.646 208.006-207.967c226.879-226.836 211.694-212.414 223.532-212.304 6.775.063 11.517 1.954 16.744 6.676 8.343 7.538 10.506 20.022 5.175 29.877-1.657 3.063-39.177 41.024-116.445 117.812-62.7 62.311-156.543 155.705-208.54 207.543l-94.539 94.251 12.12 57.803c6.666 31.792 12.309 58.333 12.54 58.981.23.648 148.244-146.355 328.919-326.674l328.5-327.852-140.999-141.076c-77.549-77.592-141.224-141.067-141.5-141.055-.275.011-147.936 147.386-328.134 327.5m673.813-246.459c-2.101.515-5.701 2.039-8 3.387-6.073 3.56-42.268 41.426-44.681 46.743-4 8.814-1.482 21.351 5.625 27.999 7.192 6.729 19.444 8.771 28.376 4.729 5.767-2.61 44.758-41.482 47.564-47.42 2.725-5.765 2.584-16.659-.285-22.095-2.468-4.675-8.197-10.057-12.706-11.935-4.465-1.86-11.504-2.483-15.893-1.408M806.5 656.888c-1.65.427-4.35 1.498-6 2.379-4.178 2.232-79.939 78.497-81.92 82.466-5.79 11.601-.083 27.52 11.882 33.144 6.478 3.045 15.58 2.904 22.092-.344 7.032-3.507 79.428-76.052 82.364-82.533 4.184-9.237 2.13-20.683-4.993-27.83-6.168-6.189-15.933-9.225-23.425-7.282M164.978 1173.75c-.012 1.513-3.366 44.15-7.454 94.75l-7.432 92 44.704 44.714 44.704 44.714 94.964-6.511c52.23-3.581 95.087-6.634 95.237-6.785.151-.151-5.701-30.149-13.005-66.664l-13.279-66.389-35.958-7.185c-38.911-7.775-41.312-8.403-46.248-12.095-7.216-5.398-7.87-7.362-16.129-48.468l-7.675-38.204-63.954-13.256c-35.174-7.29-64.965-13.281-66.203-13.313-1.797-.046-2.254.496-2.272 2.692" fill="undefined" fill-rule="evenodd"/></svg>